<svg xmlns="http://www.w3.org/2000/svg" width="148.627" height="35" viewBox="0 0 148.627 35"><defs><style>.a{fill:#fff;}</style></defs><g transform="translate(0.01)"><g transform="translate(-0.01)"><path class="a" d="M.073,0H148.531c.021.429.059.819.059,1.21q0,16.245.027,32.486c0,1.017-.281,1.3-1.3,1.3Q74.3,34.965,1.294,35c-1.023,0-1.307-.3-1.3-1.316C.025,22.857.014,12.027.017,1.2.017.834.049.473.073,0ZM70.513,14.379c.506-1.748-.518-1.606-1.446-1.576a1.615,1.615,0,0,0-.55.015,8.927,8.927,0,0,0-.923.526c.3.163.591.479.869.461.914-.059,1.109.346,1.1,1.183q-.056,5.2,0,10.41c0,1-.027,1.8-1.369,1.6-.174-.024-.39.234-.591.361.172.2.34.574.52.591q2.431.065,4.865,0c.192,0,.376-.349.565-.538-.2-.133-.379-.358-.591-.381-.547-.062-1.112.015-1.656-.065-.254-.035-.671-.3-.677-.479-.05-1.7-.03-3.413-.03-5.261,3.487,2.366,6.4,2.307,8.417-.038a5.368,5.368,0,0,0-.172-7.1C76.907,11.942,73.926,11.977,70.513,14.379Zm37.339.234c-1.479-1.328-2.83-2.23-4.548-2.147a5.066,5.066,0,0,0-4.117,2.248,5.758,5.758,0,0,0,.467,7.328c1.987,2.153,4.232,2.07,8.074-.325l.245,1.544c.8,0,1.529.041,2.256-.024.2-.018.381-.343.571-.526-.192-.142-.37-.358-.591-.405a9.166,9.166,0,0,0-1.3-.106V8.079a15.993,15.993,0,0,0-2.085.027c-.322.044-.591.364-.9.559.3.145.591.3.887.438.346.177.973.346.982.547C107.888,11.179,107.853,12.717,107.853,14.612Zm6.21,3.782a5.3,5.3,0,0,1,.606-.077c2.768,0,5.536-.05,8.3,0,1.059.024,1.3-.387,1.088-1.313a5.34,5.34,0,0,0-4.155-4.406,5.538,5.538,0,0,0-5.873,1.934,5.1,5.1,0,0,0-.521,5.915c1.709,3.436,7.349,4.392,10.194,1.751.189-.174.189-.553.278-.837-.3.018-.665-.065-.887.074a8.035,8.035,0,0,1-4.865,1.165,4.487,4.487,0,0,1-4.158-4.205Zm-88.72,0a5.173,5.173,0,0,1,.591-.077c2.768,0,5.539-.05,8.3,0,1.071.024,1.3-.408,1.085-1.322a5.5,5.5,0,0,0-4.158-4.421,5.866,5.866,0,0,0-5.95,2.041,5.3,5.3,0,0,0-.381,5.947c1.745,3.351,7.331,4.25,10.147,1.65.189-.174.186-.553.272-.837-.3.018-.662-.068-.887.071A8.038,8.038,0,0,1,29.5,22.629,4.526,4.526,0,0,1,25.343,18.395ZM44.2,17.785c-1.837,1.612-3.481,3.055-5.122,4.5-.148.133-.4.349-.364.444.071.2.3.5.455.5,1.144.041,2.292.041,3.433,0,.166,0,.319-.322.476-.494-.174-.151-.328-.393-.526-.435a6.482,6.482,0,0,0-1.106-.083l3.226-3.507,3.549,3.51a4.714,4.714,0,0,0-1.008.065,3.353,3.353,0,0,0-.757.444c.231.18.452.506.689.518a31.015,31.015,0,0,0,3.1,0,.719.719,0,0,0,.532-.417c.041-.139-.189-.4-.355-.544-1.638-1.452-3.286-2.889-5.11-4.486,1.671-1.452,3.135-2.721,4.59-4,.169-.148.42-.423.376-.55a.781.781,0,0,0-.562-.414,7.532,7.532,0,0,0-1.774-.021,9.792,9.792,0,0,0-1.52.488l1.4.887c-.849.807-1.739,1.68-2.662,2.508a.713.713,0,0,1-.665.083c-.946-.887-1.854-1.8-2.922-2.854a4.278,4.278,0,0,0,1.044-.142c.219-.1.334-.322.5-.491-.177-.157-.349-.444-.532-.45-.958-.041-1.922-.035-2.877.018-.177,0-.4.3-.476.5-.033.086.234.3.39.444C41.067,15.082,42.531,16.339,44.2,17.785ZM10.755,22.18a2.638,2.638,0,0,0-.695.092,8.173,8.173,0,0,0-.887.547,2.812,2.812,0,0,0,.887.438,19.941,19.941,0,0,0,2.662,0c.3-.021.591-.3.887-.447-.26-.183-.526-.523-.787-.52-.772,0-.929-.361-.911-1.029.03-1.331,0-2.662,0-3.989a3.845,3.845,0,0,1,4.507-3.723,2.224,2.224,0,0,1,2.038,1.916c.139,2.227.041,4.469.041,6.684a1.91,1.91,0,0,0-.426.121c-.3.183-.574.384-.861.591a2.958,2.958,0,0,0,.887.423,12.592,12.592,0,0,0,2.215,0c.263-.024.5-.3.748-.479-.2-.166-.414-.473-.618-.473-.843,0-.828-.523-.825-1.115,0-1.55-.024-3.1,0-4.655a3.659,3.659,0,0,0-1.881-3.638,4.273,4.273,0,0,0-4.525.3c-.352.24-.7.485-1.183.831.071-1.561-.929-1.289-1.73-1.227-.3.021-.547.322-.822.5a8.209,8.209,0,0,0,.751.494,2.141,2.141,0,0,0,.541.124Zm44.478-8.192v1.23c0,1.627,0,3.253.041,4.877.062,2.469,1.346,3.72,3.8,3.49a11.955,11.955,0,0,0,2.889-.994,7.292,7.292,0,0,0,.843-.444c.248,1.124.846,1.422,2.088,1.1.225-.059.393-.343.591-.523-.186-.145-.376-.423-.556-.414-.864.035-.929-.47-.923-1.139.021-2.33,0-4.658,0-6.985,0-.432-.047-.861-.08-1.375-.952,0-1.8-.038-2.638.024-.251.021-.479.331-.719.506a2.662,2.662,0,0,0,.775.461,10.25,10.25,0,0,0,1.449.086,1.3,1.3,0,0,1,.127.316c.021,1.514-.074,3.043.086,4.542a2.9,2.9,0,0,1-1.76,3.105,8.94,8.94,0,0,1-1.319.565c-2.265.751-3.635-.237-3.655-2.6-.021-2,0-3.992,0-5.989a1.479,1.479,0,0,0-.228-.917c-.334-.367-2.3,0-2.937.633Zm74.395-.163a7.985,7.985,0,0,0,1.458-.021c.269-.062.491-.325.733-.5-.248-.169-.491-.467-.745-.479-1.142-.05-2.289-.047-3.433,0-.3,0-.565.266-1.05.515.47.243.7.467.887.444.955-.115,1.254.494,1.561,1.215,1.035,2.446,2.117,4.868,3.161,7.308.266.621.553,1.02,1.357,1.011s1-.417,1.242-.988c1.038-2.443,2.109-4.871,3.144-7.313.3-.71.591-1.346,1.547-1.245.18.021.4-.316.591-.491-.183-.151-.364-.429-.55-.435q-1.94-.059-3.874,0c-.18,0-.355.3-.529.452.2.169.384.441.612.491a11.368,11.368,0,0,0,1.573.106l-3.605,8.381h-.37Zm-40.477,9.8a1.615,1.615,0,0,0,1.774-1.668,1.808,1.808,0,0,0-3.6.056A1.63,1.63,0,0,0,89.15,23.623Z" transform="translate(0.01)"/><path class="a" d="M242.968,53.45a4.235,4.235,0,0,1-4.368-4.179,4.365,4.365,0,1,1,4.368,4.179Z" transform="translate(-168.033 -31.495)"/><path class="a" d="M335.25,50.122a4.3,4.3,0,0,1,4.383-4.542,4.587,4.587,0,0,1-.086,9.162A4.306,4.306,0,0,1,335.25,50.122Z" transform="translate(-236.102 -32.1)"/><path class="a" d="M394.682,49.217H385.81a4.524,4.524,0,0,1,8.872,0Z" transform="translate(-271.71 -32.1)"/><path class="a" d="M94.786,49.193H86a4.087,4.087,0,0,1,3.753-3.629A4.385,4.385,0,0,1,94.786,49.193Z" transform="translate(-60.564 -32.073)"/></g></g></svg>