<svg xmlns="http://www.w3.org/2000/svg" width="42.651" height="34.654" viewBox="0 0 42.651 34.654"><defs><style>.a{fill:#fff;}</style></defs><g transform="translate(0 -48)"><g transform="translate(0 48)"><path class="a" d="M42.651,52.1a18.23,18.23,0,0,1-5.038,1.381,8.7,8.7,0,0,0,3.847-4.833,17.474,17.474,0,0,1-5.545,2.117A8.743,8.743,0,0,0,20.79,56.746a9,9,0,0,0,.2,1.994A24.749,24.749,0,0,1,2.97,49.594,8.746,8.746,0,0,0,5.657,61.28,8.635,8.635,0,0,1,1.706,60.2v.1a8.784,8.784,0,0,0,7.005,8.591,8.727,8.727,0,0,1-2.292.288,7.731,7.731,0,0,1-1.655-.149,8.827,8.827,0,0,0,8.17,6.091A17.569,17.569,0,0,1,2.093,78.85,16.377,16.377,0,0,1,0,78.73a24.616,24.616,0,0,0,13.414,3.924C29.5,82.654,38.3,69.325,38.3,57.772c0-.387-.013-.76-.032-1.13A17.443,17.443,0,0,0,42.651,52.1Z" transform="translate(0 -48)"/></g></g></svg>