<svg xmlns="http://www.w3.org/2000/svg" width="50.406" height="34.654" viewBox="0 0 50.406 34.654"><defs><style>.a{fill:#fff;}</style></defs><g transform="translate(0 -80)"><g transform="translate(0 80)"><path class="a" d="M48.263,83.339c-1.367-2.432-2.851-2.879-5.872-3.05-3.018-.2-10.607-.29-17.182-.29s-14.18.085-17.195.287c-3.015.173-4.5.617-5.882,3.053C.725,85.768,0,89.952,0,97.317v.025c0,7.334.725,11.549,2.133,13.953,1.38,2.432,2.864,2.873,5.879,3.078,3.018.176,10.61.28,17.2.28s14.164-.1,17.185-.277c3.021-.2,4.5-.646,5.872-3.078,1.421-2.4,2.139-6.619,2.139-13.953v-.025C50.406,89.952,49.687,85.768,48.263,83.339ZM18.9,106.778v-18.9l15.752,9.451Z" transform="translate(0 -80)"/></g></g></svg>