<svg xmlns="http://www.w3.org/2000/svg" width="34.647" height="34.654" viewBox="0 0 34.647 34.654"><defs><style>.a{fill:#fff;}</style></defs><g transform="translate(-0.449)"><path class="a" d="M35.008,10.188a12.663,12.663,0,0,0-.805-4.2A8.877,8.877,0,0,0,29.132.914a12.7,12.7,0,0,0-4.2-.805C23.073.02,22.484,0,17.779,0s-5.294.02-7.142.1a12.666,12.666,0,0,0-4.2.805,8.455,8.455,0,0,0-3.074,2,8.532,8.532,0,0,0-2,3.067,12.7,12.7,0,0,0-.805,4.2C.469,12.037.449,12.625.449,17.33s.02,5.294.1,7.142a12.662,12.662,0,0,0,.806,4.2,8.876,8.876,0,0,0,5.07,5.07,12.7,12.7,0,0,0,4.2.805c1.848.081,2.437.1,7.142.1s5.294-.02,7.142-.1a12.659,12.659,0,0,0,4.2-.805,8.864,8.864,0,0,0,5.071-5.07,12.705,12.705,0,0,0,.805-4.2c.081-1.848.1-2.437.1-7.142s-.007-5.294-.088-7.142ZM31.887,24.337a9.5,9.5,0,0,1-.6,3.216A5.748,5.748,0,0,1,28,30.843a9.532,9.532,0,0,1-3.216.6c-1.828.081-2.376.1-7,.1s-5.179-.02-7-.1a9.494,9.494,0,0,1-3.216-.6A5.332,5.332,0,0,1,5.58,29.55a5.388,5.388,0,0,1-1.293-1.99,9.534,9.534,0,0,1-.6-3.216c-.081-1.828-.1-2.376-.1-7s.02-5.179.1-7a9.493,9.493,0,0,1,.6-3.216,5.267,5.267,0,0,1,1.3-1.99,5.379,5.379,0,0,1,1.99-1.293,9.539,9.539,0,0,1,3.216-.6c1.828-.081,2.376-.1,7-.1s5.179.02,7,.1a9.5,9.5,0,0,1,3.216.6A5.329,5.329,0,0,1,30,5.138a5.387,5.387,0,0,1,1.293,1.99,9.537,9.537,0,0,1,.6,3.216c.081,1.828.1,2.376.1,7s-.02,5.165-.1,6.993Zm0,0"/><path class="a" d="M133.851,124.5a8.9,8.9,0,1,0,8.9,8.9A8.9,8.9,0,0,0,133.851,124.5Zm0,14.677a5.775,5.775,0,1,1,5.775-5.775A5.776,5.776,0,0,1,133.851,139.177Zm0,0" transform="translate(-116.072 -116.072)"/><path class="a" d="M366.606,90.68a2.078,2.078,0,1,1-2.079-2.078A2.078,2.078,0,0,1,366.606,90.68Zm0,0" transform="translate(-337.495 -82.604)"/></g></svg>