<svg xmlns="http://www.w3.org/2000/svg" xmlns:xlink="http://www.w3.org/1999/xlink" width="671" height="398.736" viewBox="0 0 671 398.736"><defs><style>.a{fill:none;}.b{clip-path:url(#a);}.c{fill:#751480;}.d{fill:#761580;}.e{fill:#771680;}.f{fill:#781780;}.g{fill:#791881;}.h{fill:#7a1881;}.i{fill:#7a1981;}.j{fill:#7b1981;}.k{fill:#7c1a81;}.l{fill:#7c1b81;}.m{fill:#7d1b81;}.n{fill:#7e1c81;}.o{fill:#7f1d81;}.p{fill:#7f1d82;}.q{fill:#801e82;}.r{fill:#811f82;}.s{fill:#822082;}.t{fill:#832082;}.u{fill:#832182;}.v{fill:#842282;}.w{fill:#852282;}.x{fill:#862382;}.y{fill:#872483;}.z{fill:#872583;}.aa{fill:#882683;}.ab{fill:#892683;}.ac{fill:#8a2783;}.ad{fill:#8b2883;}.ae{fill:#8c2983;}.af{fill:#8d2a83;}.ag{fill:#8e2a84;}.ah{fill:#8f2b84;}.ai{fill:#8f2c84;}.aj{fill:#902d84;}.ak{fill:#912e84;}.al{fill:#922f84;}.am{fill:#932f84;}.an{fill:#943085;}.ao{fill:#953185;}.ap{fill:#963285;}.aq{fill:#973385;}.ar{fill:#983485;}.as{fill:#993585;}.at{fill:#9a3585;}.au{fill:#9b3685;}.av{fill:#9c3786;}.aw{fill:#9d3886;}.ax{fill:#9e3986;}.ay{fill:#9f3a86;}.az{fill:#a03b86;}.ba{fill:#a13c86;}.bb{fill:#a23d87;}.bc{fill:#a33e87;}.bd{fill:#a43f87;}.be{fill:#a54087;}.bf{fill:#a64087;}.bg{fill:#a74187;}.bh{fill:#a84287;}.bi{fill:#a94388;}.bj{fill:#a48;}.bk{fill:#ab4588;}.bl{fill:#ac4688;}.bm{fill:#ad4788;}.bn{fill:#ae4888;}.bo{fill:#af4988;}.bp{fill:#b04a89;}.bq{fill:#b24b89;}.br{fill:#b34c89;}.bs{fill:#b44d89;}.bt{fill:#b54e89;}.bu{fill:#b64f89;}.bv{fill:#b7508a;}.bw{fill:#b8518a;}.bx{fill:#b9528a;}.by{fill:#ba538a;}.bz{fill:#bb548a;}.ca{fill:#bd558a;}.cb{fill:#be568b;}.cc{fill:#bf578b;}.cd{fill:#c0588b;}.ce{fill:#c1598b;}.cf{fill:#c25a8b;}.cg{fill:#c35b8b;}.ch{fill:#c45c8c;}.ci{fill:#c65d8c;}.cj{fill:#c75e8c;}.ck{fill:#c85f8c;}.cl{fill:#c9608c;}.cm{fill:#ca618c;}.cn{fill:#cb628d;}.co{fill:#cc638d;}.cp{fill:#ce648d;}.cq{fill:#cf668d;}.cr{fill:#d0678d;}.cs{fill:#d1688d;}.ct{fill:#d2698e;}.cu{fill:#d36a8e;}.cv{fill:#d56b8e;}.cw{fill:#d66c8e;}.cx{fill:#d76d8e;}.cy{fill:#d86e8e;}.cz{fill:#d96f8f;}.da{fill:#db708f;}.db{fill:#dc718f;}.dc{fill:#dd728f;}.dd{fill:#de748f;}.de{fill:#df758f;}.df{fill:#e17690;}.dg{fill:#e27790;}.dh{fill:#e37890;}.di{fill:#e47990;}.dj{fill:#e57a90;}.dk{fill:#e77b90;}.dl{fill:#e87c91;}.dm{fill:#e97d91;}.dn{fill:#ea7f91;}.do{fill:#ec8091;}.dp{fill:#ed8191;}.dq{fill:#ee8292;}.dr{fill:#ef8392;}.ds{fill:#f18492;}.dt{fill:#f28592;}.du{fill:#f38692;}.dv{fill:#f48892;}.dw{fill:#f58993;}.dx{fill:#f78a93;}.dy{fill:#f88b93;}.dz{fill:url(#b);}.ea{fill:url(#c);}.eb{fill:url(#d);}.ec{fill:#fcc29f;}.ed{fill:#fba999;}</style><clipPath id="a"><path class="a" d="M80.23,398.71,544.826,0l-424.1,291.61Z" transform="translate(-80.23)"/></clipPath><linearGradient id="b" x1="-0.161" y1="6.806" x2="-1.072" y2="6.477" gradientUnits="objectBoundingBox"><stop offset="0" stop-color="#fcba9d"/><stop offset="0.56" stop-color="#ee8594"/><stop offset="1" stop-color="#e4608d"/></linearGradient><linearGradient id="c" x1="11.543" y1="2.436" x2="12.332" y2="2.31" xlink:href="#b"/><linearGradient id="d" x1="0.786" y1="3.605" x2="-0.139" y2="3.117" gradientUnits="objectBoundingBox"><stop offset="0" stop-color="#f88b93"/><stop offset="0.21" stop-color="#d76d8e"/><stop offset="0.57" stop-color="#a23d87"/><stop offset="0.85" stop-color="#811f82"/><stop offset="1" stop-color="#751480"/></linearGradient></defs><g transform="translate(0 -7.8)"><g transform="translate(0 7.8)"><g class="b" transform="translate(206.404 0.026)"><rect class="c" width="464.596" height="398.71"/><path class="c" d="M88.792,358.8V157.21H73.15C104.9,95.235,150.87,39.434,207.674-7.44V9.128H558.533V413.035H88.792Z" transform="translate(-91.364 -11.701)"/><path class="c" d="M86.1,357.089V157.014H74.86C106.4,95.527,152.04,40.164,208.381-6.35V7.414H555.844V411.321H86.1Z" transform="translate(-88.675 -9.986)"/><path class="d" d="M83.4,355.359V156.827H76.58c31.284-61,76.537-115.95,132.466-162.077V5.684H553.139V409.591H83.4Z" transform="translate(-85.97 -8.256)"/><path class="d" d="M80.693,353.661V156.672H78.3C109.326,96.138,154.245,41.6,209.737-4.17V3.985h340.7V407.892H80.693Z" transform="translate(-83.265 -6.558)"/><path class="e" d="M84.656,351.9V179.248H75.78c3.4-7.718,7.049-15.282,10.882-22.794C117.534,96.383,162.015,42.28,217.1-3.05V2.224H554.4V406.131H84.656Z" transform="translate(-87.228 -4.797)"/><path class="e" d="M87.707,350.248V202.114H73.84a436.718,436.718,0,0,1,20.3-45.768C124.676,96.739,168.9,43.073,223.466-2V.573H557.448V404.48H87.707Z" transform="translate(-90.279 -3.145)"/><path class="f" d="M84.923,358.536V211.56H75.61a442.809,442.809,0,0,1,20.144-45.382C126.086,107.007,169.949,53.8,224.129,9.092Q234.42.68,244.942-7.27V8.861H554.664V412.767H84.923Z" transform="translate(-87.496 -11.433)"/><path class="f" d="M82.124,356.759V210.966H77.39a436.263,436.263,0,0,1,19.99-45.047c30.074-58.5,73.578-111.473,127.346-155.826Q234.811,1.81,245.307-6.14V7.083H551.865V410.99H82.124Z" transform="translate(-84.696 -9.656)"/><path class="g" d="M88.194,354.966V256.948H73.53a423.1,423.1,0,0,1,34.345-91.278C137.692,107.5,180.861,55.046,234.192,11.1Q244.2,2.847,254.774-5V5.291H557.935V409.2H88.194Z" transform="translate(-90.767 -7.863)"/><path class="h" d="M85.332,353.173V255.952H75.35a420.73,420.73,0,0,1,34.062-90.532C139,107.716,181.806,55.748,234.7,12.116q9.93-8.181,20.324-15.976V3.5H555.073V407.4H85.332Z" transform="translate(-87.905 -6.07)"/><path class="i" d="M72.6,351.38C72.6,219.274,137.482,99.672,242.4,13.1Q252.223,5,262.539-2.72V1.7H559.4V405.612H89.657V351.38Z" transform="translate(-92.229 -4.278)"/><path class="j" d="M74.46,358.709c0-131.025,64.316-249.548,168.432-335.474Q262.367,7.156,283.72-7.38V9.034h272.7V412.94H86.732V358.709Z" transform="translate(-89.304 -11.606)"/><path class="k" d="M76.32,356.853c0-129.919,63.828-247.541,167.043-332.67Q262.683,8.207,283.882-6.2V7.178H553.548V411.085H83.806V356.853Z" transform="translate(-86.379 -9.75)"/><path class="l" d="M78.19,354.966c0-128.839,63.287-245.457,165.6-329.892Q262.932,9.253,283.951-5V5.291H550.607V409.2H84.7v16.851c-1.441-7.718-2.573-15.436-3.6-23.334a390.518,390.518,0,0,1-2.907-47.748Z" transform="translate(-83.438 -7.863)"/><path class="m" d="M80.05,353.126c0-127.732,62.747-243.373,164.213-327.087Q263.3,10.345,284.087-3.83V3.451H547.682V407.358H86.507v16.259q-2.11-11.5-3.576-23.154a388.455,388.455,0,0,1-2.881-47.337Z" transform="translate(-80.513 -6.023)"/><path class="n" d="M81.91,351.176c0-126.652,62.233-241.289,162.823-324.155Q263.565,11.431,284.2-2.59V1.5H544.756V405.407H88.316v15.667c-1.415-7.589-2.573-15.256-3.525-22.948a382.89,382.89,0,0,1-2.881-46.951Z" transform="translate(-77.588 -4.073)"/><path class="o" d="M83.77,349.43c0-125.546,61.744-239.257,161.408-321.582Q263.907,12.412,284.334-1.48V-.245h257.5V403.662H90.124v15.05q-2.084-11.268-3.5-22.742A380.982,380.982,0,0,1,83.77,349.43Z" transform="translate(-74.663 -2.328)"/><path class="p" d="M85.64,355.705c0-124.465,61.126-237.147,159.993-318.7q18.446-15.282,38.8-29.1Q294.54,1.039,305.01-5.47V6.03H538.839V409.937H91.917v14.458q-2.058-11.191-3.473-22.562a379.391,379.391,0,0,1-2.8-46.128Z" transform="translate(-71.722 -8.602)"/><path class="q" d="M87.5,353.771c0-123.359,60.612-235.064,158.6-315.9Q264.473,22.7,284.54,9.035,294.573,2.217,305.121-4.24V4.1H536.068V408H93.726v13.841q-2.058-11.088-3.422-22.356a372.649,372.649,0,0,1-2.8-45.716Z" transform="translate(-68.797 -6.668)"/><path class="r" d="M89.36,359.354c0-122.278,60.071-232.98,157.215-313.118A531.666,531.666,0,0,1,325.993-7.79V9.678H533.04V413.585H95.689v13.249q-2.058-10.985-3.422-22.151a371.776,371.776,0,0,1-2.907-45.33Z" transform="translate(-65.872 -12.251)"/><path class="s" d="M91.22,357.372c0-121.2,59.557-230.9,155.8-310.314A526.259,526.259,0,0,1,325.743-6.53V7.7H530.115V411.6H97.369v12.657c-1.364-7.281-2.573-14.587-3.4-21.97a369.868,369.868,0,0,1-2.753-44.918Z" transform="translate(-62.947 -10.269)"/><path class="t" d="M93.09,355.375c0-120.092,58.991-228.812,154.359-307.509A521.986,521.986,0,0,1,325.478-5.26V5.7h201.7V409.606H99.161v12.04c-1.338-7.2-2.573-14.458-3.344-21.765A363.431,363.431,0,0,1,93.09,355.375Z" transform="translate(-60.006 -8.272)"/><path class="u" d="M95,353.393c0-119.011,58.451-226.728,153-304.731A515.513,515.513,0,0,1,325.151-4V3.718H524.171V407.625H100.892v11.448c-1.312-7.126-2.573-14.33-3.319-21.559A362.566,362.566,0,0,1,95,353.393Z" transform="translate(-57.003 -6.291)"/><path class="v" d="M96.81,351.365c0-117.9,57.936-224.67,151.581-301.927A511.731,511.731,0,0,1,325-2.71v4.4H521.324V405.6H102.779v10.831q-1.955-10.574-3.293-21.353a355.515,355.515,0,0,1-2.676-43.71Z" transform="translate(-54.155 -4.262)"/><path class="w" d="M98.68,349.352c0-116.824,57.37-222.586,150.166-299.123A506.818,506.818,0,0,1,324.74-1.43V-.324H518.383V403.583H104.649v10.291c-1.286-7-2.393-14.047-3.267-21.173a354.23,354.23,0,0,1-2.7-43.349Z" transform="translate(-51.215 -2.249)"/><path class="x" d="M100.54,354.022c0-115.769,56.856-220.5,148.777-296.344A502.293,502.293,0,0,1,324.49,6.508C331.23,2.752,338.125-.9,345.071-4.4V4.347H515.432V408.254H106.38V417.9q-1.93-10.291-3.216-20.993a347.3,347.3,0,0,1-2.624-42.886Z" transform="translate(-48.289 -6.92)"/><path class="y" d="M102.4,358.064c0-114.638,56.315-218.418,147.362-293.54A496.888,496.888,0,0,1,324.24,13.843q20.066-11.191,41.5-20.813V8.466h146.8V412.3H108.189v9.03c-1.261-6.869-2.341-13.789-3.19-20.761a346.3,346.3,0,0,1-2.6-42.5Z" transform="translate(-45.364 -10.961)"/><path class="z" d="M104.26,355.925c0-113.557,55.8-216.335,145.972-290.71a492.005,492.005,0,0,1,73.758-50.244Q343.851,3.909,365.153-5.61V6.25H509.685V410.157H110.023V418.6c-1.261-6.818-2.341-13.661-3.19-20.581a344.393,344.393,0,0,1-2.573-42.089Z" transform="translate(-42.439 -8.823)"/><path class="aa" d="M106.13,353.8c0-112.451,55.235-214.251,144.557-287.957a489.531,489.531,0,0,1,73.038-49.729q19.706-10.959,40.7-20.375V4.127H506.667V408.034H111.816v7.718q-1.9-10.111-3.139-20.375A338.005,338.005,0,0,1,106.13,353.8Z" transform="translate(-39.498 -6.7)"/><path class="ab" d="M108,351.679c0-111.37,54.695-212.167,143.168-285.153A483.167,483.167,0,0,1,323.46,17.285Q342.986,6.4,363.773-2.91V2H503.726V405.911H113.609v7.229c-1.235-6.663-2.29-13.4-3.113-20.17a336.8,336.8,0,0,1-2.5-41.291Z" transform="translate(-36.558 -4.576)"/><path class="ac" d="M109.85,349.556c0-110.264,54.18-210.109,141.753-282.349a477.463,477.463,0,0,1,71.648-48.88Q342.547,7.6,363.154-1.56V-.119H500.817V403.788H115.381v6.637q-1.852-9.9-3.087-19.99a335.189,335.189,0,0,1-2.444-40.88Z" transform="translate(-33.648 -2.453)"/><path class="ad" d="M111.711,357.608c0-109.183,53.64-208.025,140.364-279.57A495.646,495.646,0,0,1,404.4-6.68V7.933h93.49V411.84H117.139v6.02c-1.209-6.535-2.238-13.146-3.036-19.784a328.461,328.461,0,0,1-2.393-40.468Z" transform="translate(-30.724 -10.505)"/><path class="ae" d="M113.58,355.391c0-108.052,53.1-205.812,138.923-276.766A490.734,490.734,0,0,1,403.312-5.27V5.715H494.95V409.622H119.034v5.428q-1.8-9.725-3.01-19.6a326.735,326.735,0,0,1-2.444-40.056Z" transform="translate(-27.782 -8.288)"/><path class="af" d="M115.44,353.157c0-107,52.559-203.857,137.534-273.962A486.024,486.024,0,0,1,402.188-3.85V3.482h89.76V407.389H120.843V412.2q-1.775-9.6-2.984-19.372a325.971,325.971,0,0,1-2.418-39.67Z" transform="translate(-24.857 -6.055)"/><path class="ag" d="M117.3,350.924c0-105.916,52.045-201.773,136.145-271.184A481.087,481.087,0,0,1,401.193-2.43V1.249H489.1V405.156H122.651v4.219c-1.158-6.354-2.161-12.863-2.959-19.192a324.419,324.419,0,0,1-2.393-39.259Z" transform="translate(-21.932 -3.822)"/><path class="ah" d="M119.16,348.675c0-104.81,51.453-199.69,134.756-268.379A476.146,476.146,0,0,1,400.146-1h86.029V402.907H124.485v3.627q-1.775-9.442-2.933-19.012a317.632,317.632,0,0,1-2.393-38.847Z" transform="translate(-19.007 -1.573)"/><path class="ai" d="M121,354.2C121,250.466,171.939,156.59,254.341,88.62A471.182,471.182,0,0,1,399.1,8.122Q419.685.97,440.935-4.51V4.52h42.346V408.427H126.325v3.01c-1.158-6.2-2.135-12.477-2.907-18.78A316.453,316.453,0,0,1,121,354.2Z" transform="translate(-16.113 -7.093)"/><path class="aj" d="M122.89,357.482c0-102.623,50.424-195.522,131.926-262.8A466.5,466.5,0,0,1,398.01,14.933,519.032,519.032,0,0,1,482.547-6.6L480.309,7.807V411.714H128.087v2.418q-1.749-9.21-2.881-18.6a314.891,314.891,0,0,1-2.315-38.05Z" transform="translate(-13.141 -10.38)"/><path class="ak" d="M124.75,355.123c0-101.543,49.884-193.464,130.537-259.993a461.225,461.225,0,0,1,141.65-78.8A514.272,514.272,0,0,1,480.6-5.1L477.384,5.448V409.355H129.9v1.8c-1.132-6.071-2.084-12.22-2.83-18.394a308.134,308.134,0,0,1-2.315-37.638Z" transform="translate(-10.215 -8.021)"/><path class="al" d="M126.62,352.8c0-100.334,49.344-191.38,129.122-257.266A455.565,455.565,0,0,1,395.874,17.579a506.229,506.229,0,0,1,82.737-21.2l-4.168,6.74V407.027H131.688v1.209c-1.106-6.02-2.058-12.091-2.8-18.214A301.413,301.413,0,0,1,126.62,352.8Z" transform="translate(-7.275 -5.693)"/><path class="am" d="M128.48,350.389c0-99.356,48.88-189.3,127.707-254.41A451.784,451.784,0,0,1,394.8,18.877,504.065,504.065,0,0,1,476.663-2.09l-5.145,2.8V404.621H133.5v.617q-1.672-8.953-2.778-18.009a300.2,300.2,0,0,1-2.238-36.84Z" transform="translate(-4.35 -3.287)"/><path class="an" d="M130.34,348.015c0-98.25,48.263-187.212,126.317-251.606a446.124,446.124,0,0,1,137.1-76.254A495.647,495.647,0,0,1,474.716-.58h-6.123V402.246H139.113v17.52a296.3,296.3,0,0,1-8.773-71.751Z" transform="translate(-1.424 -0.912)"/><path class="ao" d="M132.2,345.7c0-97.169,47.748-185.231,124.928-248.8a441.75,441.75,0,0,1,135.553-75.43A493.951,493.951,0,0,1,472.743.89h-7.075V399.935H140.87v16.722A293.7,293.7,0,0,1,132.2,345.7Z" transform="translate(1.501 1.4)"/><path class="ap" d="M134.07,343.281c0-96.089,47.182-183.044,123.487-246.023A436.553,436.553,0,0,1,391.593,22.651,485.465,485.465,0,0,1,470.908,2.43h-8.052V397.513H142.637v15.925a289.84,289.84,0,0,1-8.567-70.156Z" transform="translate(4.442 3.822)"/><path class="aq" d="M135.93,340.906c0-94.982,46.668-180.986,122.1-243.219A431.485,431.485,0,0,1,390.546,23.981,478.518,478.518,0,0,1,468.806,3.94h-9v391.2H144.394v15.127A287.079,287.079,0,0,1,135.93,340.906Z" transform="translate(7.367 6.196)"/><path class="ar" d="M137.79,338.547c0-93.9,46.128-178.9,120.709-240.415a426.34,426.34,0,0,1,131-72.883A475.242,475.242,0,0,1,466.858,5.44h-9.982V392.779h-310.7v14.33A283.224,283.224,0,0,1,137.79,338.547Z" transform="translate(10.292 8.555)"/><path class="as" d="M139.65,336.094c0-92.8,45.613-176.819,119.32-237.636A421.325,421.325,0,0,1,388.426,26.424,468.218,468.218,0,0,1,464.885,7H453.951V390.326H147.934v13.532a280.423,280.423,0,0,1-8.284-67.764Z" transform="translate(13.217 11.009)"/><path class="at" d="M141.52,333.767c0-91.715,45.047-174.735,117.879-234.832A417.208,417.208,0,0,1,387.363,27.826,465.028,465.028,0,0,1,462.922,8.48H451.011V388H149.7v12.863a276.638,276.638,0,0,1-8.181-67.095Z" transform="translate(16.158 13.336)"/><path class="au" d="M143.38,331.439c0-90.609,44.507-172.651,116.49-232.028A411.187,411.187,0,0,1,386.29,29.075,457.937,457.937,0,0,1,460.9,9.96H448.034V385.671H151.458v11.963A274.4,274.4,0,0,1,143.38,331.439Z" transform="translate(19.083 15.664)"/><path class="av" d="M145.24,329.08c0-89.528,43.992-170.567,115.1-229.249a406.224,406.224,0,0,1,124.9-69.462A452.252,452.252,0,0,1,459,11.46H445.16V383.312H153.241v11.165a270.382,270.382,0,0,1-8-65.4Z" transform="translate(22.008 18.023)"/><path class="aw" d="M147.1,326.658c0-88.448,43.452-168.483,113.711-226.394A401.849,401.849,0,0,1,384.17,31.626,447.776,447.776,0,0,1,457.028,13H442.235V380.89H155V391.18a267.813,267.813,0,0,1-7.9-64.522Z" transform="translate(24.933 20.445)"/><path class="ax" d="M149,324.346c0-87.264,42.835-166.425,112.193-223.615A396.6,396.6,0,0,1,383.112,32.916,442.029,442.029,0,0,1,455.146,14.47h-15.77V378.578H156.718v9.57a264.984,264.984,0,0,1-7.718-63.8Z" transform="translate(27.921 22.756)"/><path class="ay" d="M150.83,321.94c0-86.261,42.372-164.341,110.881-220.862A392.407,392.407,0,0,1,382.034,34.189,438.249,438.249,0,0,1,453.091,16H436.369V376.172H158.522v8.773a261.2,261.2,0,0,1-7.692-63Z" transform="translate(30.799 25.162)"/><path class="az" d="M152.69,319.628c0-85.155,41.831-162.257,109.492-218.058A386.749,386.749,0,0,1,380.988,35.479,429.167,429.167,0,0,1,451.144,17.47h-17.7V373.86H160.279v7.975a258.633,258.633,0,0,1-7.589-62.207Z" transform="translate(33.725 27.474)"/><path class="ba" d="M154.56,315.193c0-84.074,41.291-160.174,108.052-215.254A381.37,381.37,0,0,1,379.9,34.7q16.542-5.788,33.907-10.291,8.67-2.238,17.52-4.116H430.5V369.425H162.046V376.6a254.7,254.7,0,0,1-7.486-61.409Z" transform="translate(36.665 31.909)"/><path class="bb" d="M156.42,312.772c0-82.968,40.751-158.09,106.662-212.476A376.763,376.763,0,0,1,378.852,35.98q16.336-5.711,33.444-10.11c5.711-1.441,11.474-2.8,17.288-4.039h-2.007V367H163.8v6.38a252.12,252.12,0,0,1-7.384-60.612Z" transform="translate(39.591 34.331)"/><path class="bc" d="M158.28,310.476c0-81.888,40.236-156.006,105.273-209.671A371.8,371.8,0,0,1,377.779,37.26q16.13-5.634,33.033-9.982,8.464-2.161,17.057-3.988h-3.216V364.707H165.586v5.583A248,248,0,0,1,158.28,310.476Z" transform="translate(42.516 36.627)"/><path class="bd" d="M160.14,308.132c0-80.781,39.7-153.922,103.858-206.867A367.685,367.685,0,0,1,376.732,38.544c10.6-3.679,21.482-6.972,32.57-9.828,5.557-1.415,11.165-2.753,16.825-3.936h-4.4V362.364H167.343v4.785a245.406,245.406,0,0,1-7.2-59.017Z" transform="translate(45.441 38.97)"/><path class="be" d="M162,305.726c0-79.752,39.156-151.787,102.443-204.089a362.745,362.745,0,0,1,111.19-61.744q15.693-5.48,32.158-9.7c5.454-1.415,11.011-2.7,16.594-3.885h-5.608V359.958H169.229v3.988A241.393,241.393,0,0,1,162,305.726Z" transform="translate(48.366 41.377)"/><path class="bf" d="M163.87,303.414c0-78.62,38.59-149.78,101.054-201.285A356.93,356.93,0,0,1,374.6,41.209c10.291-3.6,20.89-6.818,31.7-9.57q8.1-2.084,16.362-3.859h-6.792V357.646H170.868v3.19a238.636,238.636,0,0,1-7-57.422Z" transform="translate(51.307 43.688)"/><path class="bg" d="M165.73,301.118c0-77.514,38.075-147.7,99.665-198.48A351.5,351.5,0,0,1,373.446,42.463q15.282-5.325,31.258-9.442c5.325-1.364,10.728-2.573,16.156-3.782h-8V355.35H172.574v2.393A234.782,234.782,0,0,1,165.73,301.118Z" transform="translate(54.232 45.984)"/><path class="bh" d="M167.59,298.775c0-76.434,37.561-145.612,98.25-195.7a347.308,347.308,0,0,1,106.637-59.3q15.05-5.145,30.872-9.313c5.145-1.338,10.548-2.573,15.925-3.73h-9.21V353.007H174.408v1.6a232.053,232.053,0,0,1-6.818-55.827Z" transform="translate(57.157 48.328)"/><path class="bi" d="M169.46,296.432c0-75.327,36.995-143.528,96.835-192.949A342.37,342.37,0,0,1,371.516,45.058q14.87-5.145,30.383-9.159c5.145-1.338,10.419-2.573,15.693-3.679H407.3V350.663H176.175v.8a228.166,228.166,0,0,1-6.715-55.029Z" transform="translate(60.098 50.671)"/><path class="bj" d="M171.32,294.088c0-74.247,36.48-141.5,95.446-190.094A337.019,337.019,0,0,1,370.341,46.367c9.75-3.4,19.732-6.432,29.946-9.03Q408,35.382,415.722,33.71h-11.6V348.32H181.585v12.863c-1.338-4.3-2.573-8.644-3.653-13.018a225.6,225.6,0,0,1-6.612-54.077Z" transform="translate(63.023 53.014)"/><path class="bk" d="M173.18,291.745c0-73.141,36.017-139.386,94.031-187.315A332.876,332.876,0,0,1,369.268,47.677q14.432-5.145,29.508-8.927c5.017-1.286,10.111-2.573,15.23-3.55H401.143V345.977H183.291v12.014c-1.312-4.219-2.573-8.49-3.576-12.863a221.58,221.58,0,0,1-6.535-53.383Z" transform="translate(65.948 55.357)"/><path class="bl" d="M175,289.418c0-72.034,35.4-137.3,92.616-184.511A327.267,327.267,0,0,1,368.155,48.977q14.2-4.94,29.045-8.773c4.965-1.261,9.956-2.444,15.024-3.525h-14V343.649H184.956v11.037q-1.955-6.252-3.55-12.632A217.7,217.7,0,0,1,175,289.418Z" transform="translate(68.81 57.685)"/><path class="bm" d="M176.91,284.951c0-70.98,34.86-135.219,91.226-181.707a321.992,321.992,0,0,1,99-55.081c9.313-3.267,18.883-6.149,28.634-8.644h-.412V339.183H186.712v10.033q-1.929-6.123-3.473-12.426A213.836,213.836,0,0,1,176.91,284.951Z" transform="translate(71.814 62.151)"/><path class="bn" d="M178.77,282.64c0-69.873,34.319-133.135,89.837-178.928A317.388,317.388,0,0,1,366.085,49.48c9.159-3.19,18.574-6.046,28.171-8.49h-1.827V336.871H188.417v9.056q-1.9-6.046-3.422-12.246a211.115,211.115,0,0,1-6.226-51.041Z" transform="translate(74.739 64.463)"/><path class="bo" d="M180.63,280.343c0-68.793,33.8-131.051,88.422-176.124a312.552,312.552,0,0,1,95.96-53.383q13.532-4.708,27.759-8.387H389.5V334.575H190.149v8.052c-1.261-3.962-2.367-7.975-3.37-12.04a207.249,207.249,0,0,1-6.149-50.244Z" transform="translate(77.665 66.759)"/><path class="bp" d="M182.5,278.032c0-67.687,33.239-128.967,87.007-173.32a306.892,306.892,0,0,1,94.365-52.534q13.327-4.682,27.3-8.258h-4.682V332.263H191.839v7.075c-1.209-3.91-2.315-7.872-3.319-11.86a204.5,204.5,0,0,1-6.02-49.446Z" transform="translate(80.605 69.071)"/><path class="bq" d="M184.36,275.72c0-66.606,32.724-126.883,85.618-170.541a302.981,302.981,0,0,1,92.9-51.685c8.747-3.036,17.726-5.763,26.859-8.1h-6.1V329.951H197.506V347.5a203.367,203.367,0,0,1-13.146-71.726Z" transform="translate(83.531 71.383)"/><path class="br" d="M186.22,273.345c0-65.5,32.184-124.825,84.2-167.737A297.76,297.76,0,0,1,361.83,54.875q12.863-4.528,26.421-7.975h-7.538V327.577H199.161v16.362a206.011,206.011,0,0,1-7.1-22.742,198.091,198.091,0,0,1-5.84-47.851Z" transform="translate(86.456 73.758)"/><path class="bs" d="M188.08,271.033c0-64.316,31.644-122.741,82.814-164.933a292.845,292.845,0,0,1,89.863-50.012q12.709-4.4,25.984-7.718h-8.953V325.265H200.738v15.179a198.892,198.892,0,0,1-6.946-22.356A194.034,194.034,0,0,1,188.08,271.033Z" transform="translate(89.381 76.069)"/><path class="bt" d="M190,268.753c0-63.313,31.1-120.658,81.4-162.077a287.6,287.6,0,0,1,88.345-49.138q12.477-4.374,25.521-7.718H374.974V322.985H202.606v14a197.444,197.444,0,0,1-6.843-21.97A191.43,191.43,0,0,1,190,268.753Z" transform="translate(92.4 78.35)"/><path class="bu" d="M191.81,266.567c0-62.233,30.563-118.574,80.01-159.35a282.093,282.093,0,0,1,86.8-48.289q12.271-4.271,25.109-7.718H371.922V320.8H204.082v12.863a192.579,192.579,0,0,1-6.715-21.61,187.445,187.445,0,0,1-5.557-45.485Z" transform="translate(95.247 80.536)"/><path class="bv" d="M193.67,264.177c0-61.152,30.049-116.49,78.595-156.546a277.975,277.975,0,0,1,85.309-47.466Q369.614,56,382.323,52.73H369.1V318.408H205.736v11.654a189.471,189.471,0,0,1-6.612-21.224A184.843,184.843,0,0,1,193.67,264.177Z" transform="translate(98.172 82.926)"/><path class="bw" d="M195.53,261.928c0-60.046,29.508-114.406,77.18-153.768A272.96,272.96,0,0,1,356.5,61.466q11.86-4.116,24.234-7.306H366.071v262H207.39V326.63a184.074,184.074,0,0,1-11.86-64.651Z" transform="translate(101.097 85.175)"/><path class="bx" d="M197.4,259.569c0-58.965,28.942-112.322,75.79-150.963a267.891,267.891,0,0,1,82.325-45.768q11.6-4.065,23.771-7.178H363.208V313.8h-154.1v9.313a183.185,183.185,0,0,1-6.38-20.581A178.232,178.232,0,0,1,197.4,259.569Z" transform="translate(104.038 87.534)"/><path class="by" d="M199.26,257.257c0-57.859,28.428-110.264,74.375-148.159a263.056,263.056,0,0,1,80.73-44.919c7.718-2.573,15.436-5.017,23.334-7.049H360.205V311.488H210.683v8.13a176.286,176.286,0,0,1-6.252-20.092,174.375,174.375,0,0,1-5.171-42.269Z" transform="translate(106.963 89.846)"/><path class="bz" d="M201.12,252.964c0-56.779,27.888-108.052,72.986-145.381a257.857,257.857,0,0,1,79.212-44.044c3.73-1.312,7.486-2.573,11.32-3.679H357.28V307.2H212.337v6.946a172.908,172.908,0,0,1-11.217-61.126Z" transform="translate(109.888 94.139)"/><path class="ca" d="M203,250.7c0-55.672,27.373-106.1,71.6-142.577A253.174,253.174,0,0,1,352.214,64.9c3.653-1.261,7.358-2.573,11.114-3.6h-9V304.93H213.96v5.788a173.749,173.749,0,0,1-6.046-19.346A169.052,169.052,0,0,1,203,250.7Z" transform="translate(112.845 96.404)"/><path class="cb" d="M204.85,248.434c0-54.592,26.807-104.012,70.182-139.772A247.513,247.513,0,0,1,351.183,66.29q5.351-1.878,10.882-3.55H351.414V302.666H215.527v4.605a172.1,172.1,0,0,1-5.891-18.96,165.2,165.2,0,0,1-4.785-39.876Z" transform="translate(115.754 98.668)"/><path class="cc" d="M206.71,244.047c0-53.511,26.292-101.929,68.767-136.994A243.221,243.221,0,0,1,350.084,65.53h-1.621V298.278H217.258V301.7a165.247,165.247,0,0,1-5.788-18.575,162.436,162.436,0,0,1-4.759-39.079Z" transform="translate(118.679 103.056)"/><path class="cd" d="M208.57,241.735c0-52.405,25.727-99.845,67.378-134.19A237.559,237.559,0,0,1,349.063,67h-3.5V295.966H218.912V298.2a159.943,159.943,0,0,1-10.291-56.418Z" transform="translate(121.605 105.368)"/><path class="ce" d="M210.44,239.58c0-51.324,25.186-97.761,65.963-131.386A232.567,232.567,0,0,1,347.974,68.37h-5.351V293.812H220.551v1.08a164.032,164.032,0,0,1-5.557-17.8,156.2,156.2,0,0,1-4.554-37.509Z" transform="translate(124.545 107.522)"/><path class="cf" d="M212.3,237.379c0-50.218,24.672-95.7,64.548-128.633A228.966,228.966,0,0,1,346.927,69.77H339.7V291.61H229.537v16.619A154.616,154.616,0,0,1,212.3,237.379Z" transform="translate(127.471 109.724)"/><path class="cg" d="M214.16,235.13c0-49.138,24.132-93.619,63.159-125.8A223.436,223.436,0,0,1,345.854,71.2h-9.081V289.361H231.114v15.076A151.143,151.143,0,0,1,214.16,235.13Z" transform="translate(130.396 111.973)"/><path class="ch" d="M216,232.912c0-48.031,23.617-91.535,61.744-123a218.289,218.289,0,0,1,66.889-37.3h-10.96V287.144H232.619v13.532A147.954,147.954,0,0,1,216,232.912Z" transform="translate(133.289 114.19)"/><path class="ci" d="M217.89,230.726c0-46.951,23.154-89.451,60.354-120.22A212.734,212.734,0,0,1,343.719,74H330.855V284.958H234.072v11.989a144.455,144.455,0,0,1-16.182-66.22Z" transform="translate(136.262 116.376)"/><path class="cj" d="M219.75,228.446c0-45.845,22.536-87.47,58.94-117.416a208.05,208.05,0,0,1,63.982-35.58h-14.69V282.677h-92.41v10.291a140.877,140.877,0,0,1-15.822-64.522Z" transform="translate(139.187 118.657)"/><path class="ck" d="M221.61,226.228c0-44.764,22-85.284,57.55-114.612A203.239,203.239,0,0,1,341.6,76.86H325.057v203.6H237.046v8.9A137.61,137.61,0,0,1,221.61,226.228Z" transform="translate(142.112 120.874)"/><path class="cl" d="M223.47,219.922c0-43.735,21.456-83.2,56.161-111.833a190.093,190.093,0,0,1,28.3-19.295q7.718-4.3,15.822-7.924H322.08V274.154H238.546v7.384A134.317,134.317,0,0,1,223.47,219.922Z" transform="translate(145.037 127.181)"/><path class="cm" d="M225.34,217.8c0-42.577,20.916-81.142,54.72-109.029a185.439,185.439,0,0,1,27.656-18.832q7.486-4.168,15.436-7.718h-3.936V272.031H240.03v5.84A130.82,130.82,0,0,1,225.34,217.8Z" transform="translate(147.978 129.304)"/><path class="cn" d="M227.2,215.676c0-41.5,20.375-79.058,53.331-106.225a178.181,178.181,0,0,1,26.962-18.369c4.836-2.573,9.853-5.145,15-7.512h-6.226V269.907H241.5v4.3a127.628,127.628,0,0,1-14.3-58.528Z" transform="translate(150.903 131.427)"/><path class="co" d="M229.06,213.553c0-40.391,19.861-76.974,51.942-103.446a174.934,174.934,0,0,1,26.241-17.854c4.708-2.573,9.6-5.145,14.613-7.332H313.34V267.784H243v2.753a124.053,124.053,0,0,1-13.944-56.984Z" transform="translate(153.828 133.55)"/><path class="cp" d="M230.92,211.493c0-39.31,19.321-74.89,50.553-100.642a170.668,170.668,0,0,1,25.521-17.494c4.579-2.573,9.339-4.939,14.227-7.126H310.415V265.724H244.478v1.209a120.916,120.916,0,0,1-13.558-55.441Z" transform="translate(156.753 135.61)"/><path class="cq" d="M232.79,209.259c0-38.2,18.755-72.806,49.112-97.761a163.987,163.987,0,0,1,24.826-16.9,151.094,151.094,0,0,1,13.841-6.946H307.474V263.491H253.037v11.783a133.4,133.4,0,0,1-7.075-12.091,117.467,117.467,0,0,1-13.172-53.923Z" transform="translate(159.694 137.843)"/><path class="cr" d="M234.65,203.063c0-37.123,18.24-70.722,47.723-95.06A161.469,161.469,0,0,1,306.479,91.59h-1.93v165.7H254.305v9.879a127.778,127.778,0,0,1-6.843-11.731,114,114,0,0,1-12.812-52.379Z" transform="translate(162.619 144.04)"/><path class="cs" d="M236.51,201.05c0-36.017,17.7-68.638,46.308-92.255A154.5,154.5,0,0,1,306.2,92.87H301.6V255.282h-46v8a126.6,126.6,0,0,1-6.663-11.4A110.8,110.8,0,0,1,236.51,201.05Z" transform="translate(165.545 146.052)"/><path class="ct" d="M238.38,199.037c0-34.937,17.16-66.58,44.893-89.451A151.785,151.785,0,0,1,305.964,94.15h-7.281V253.269H264.57v16.542a120.068,120.068,0,0,1-14.15-21.482,107.228,107.228,0,0,1-12.04-49.292Z" transform="translate(168.485 148.065)"/><path class="cu" d="M240.24,197.056c0-33.856,16.619-64.5,43.5-86.673a148.258,148.258,0,0,1,22-14.973h-9.982V251.287H265.606v14.33A116.206,116.206,0,0,1,251.92,244.8a103.73,103.73,0,0,1-11.68-47.748Z" transform="translate(171.411 150.047)"/><path class="cv" d="M242.1,195.043c0-32.75,16.1-62.413,42.114-83.869A141.287,141.287,0,0,1,305.49,96.69H292.833V249.274h-26.19v12.143a116.491,116.491,0,0,1-13.249-20.17A100.538,100.538,0,0,1,242.1,195.043Z" transform="translate(174.336 152.06)"/><path class="cw" d="M244,193.045c0-31.669,15.436-60.329,40.7-81.064A139.923,139.923,0,0,1,305.281,97.96H289.845V247.174h-22.2v9.93a111.082,111.082,0,0,1-12.863-19.475A97.579,97.579,0,0,1,244,193.045Z" transform="translate(177.324 154.057)"/><path class="cx" d="M245.83,191.032c0-30.563,15-58.245,39.284-78.286A133.426,133.426,0,0,1,304.975,99.24H286.967V245.264h-18.24v7.718a107.36,107.36,0,0,1-12.374-18.806,94.288,94.288,0,0,1-10.522-43.143Z" transform="translate(180.202 156.07)"/><path class="cy" d="M247.69,181.062c0-29.483,14.484-56.161,37.9-75.482h-1.544V235.293H269.789V240.8a102.183,102.183,0,0,1-11.937-18.137,90.712,90.712,0,0,1-10.162-41.6Z" transform="translate(183.127 166.041)"/><path class="cz" d="M249.55,179.348c0-28.3,13.944-54.026,36.506-72.678h-4.94V233.579H270.826v3.293A98.3,98.3,0,0,1,259.352,219.4,87.239,87.239,0,0,1,249.55,179.348Z" transform="translate(186.052 167.755)"/><path class="da" d="M251.41,177.649c0-27.3,13.429-52.019,35.091-69.9h-8.31V231.881L286.5,247.6C264.839,229.642,251.41,204.945,251.41,177.649Z" transform="translate(188.977 169.454)"/><path class="db" d="M253.28,175.935c0-26.215,12.863-49.935,33.676-67.095H275.251V230.166l11.706,12.863C266.143,225.844,253.28,202.125,253.28,175.935Z" transform="translate(191.918 171.168)"/><path class="dc" d="M255.14,174.236c0-25.109,12.323-47.851,32.287-64.316h-15.1V228.262l15.1,10.11C267.463,222.088,255.14,199.346,255.14,174.236Z" transform="translate(194.843 172.866)"/><path class="dd" d="M257,164.675a73.887,73.887,0,0,1,8.284-33.856A83.636,83.636,0,0,1,275.009,116H269.4v97.246h5.608a84.585,84.585,0,0,1-9.725-14.767,73.99,73.99,0,0,1-8.284-33.8Z" transform="translate(197.768 182.428)"/><path class="de" d="M258.86,154.673a70.413,70.413,0,0,1,7.924-32.313h-.309v64.625h.309a70.49,70.49,0,0,1-7.924-32.312Z" transform="translate(200.693 192.43)"/><path class="df" d="M260.73,153.792a67.2,67.2,0,0,1,7.511-30.87h-4.707v61.538h4.708a67.2,67.2,0,0,1-7.512-30.666Z" transform="translate(203.634 193.311)"/><path class="dg" d="M261.82,134.92Z" transform="translate(205.348 212.183)"/><path class="dh" d="M261.82,134.92Z" transform="translate(205.348 212.183)"/><path class="di" d="M261.82,134.92Z" transform="translate(205.348 212.183)"/><path class="dj" d="M261.82,134.92Z" transform="translate(205.348 212.183)"/><path class="dk" d="M261.82,134.92Z" transform="translate(205.348 212.183)"/><path class="dl" d="M261.82,134.92Z" transform="translate(205.348 212.183)"/><path class="dm" d="M261.82,134.92Z" transform="translate(205.348 212.183)"/><path class="dn" d="M261.82,134.92Z" transform="translate(205.348 212.183)"/><path class="do" d="M261.82,134.92Z" transform="translate(205.348 212.183)"/><path class="dp" d="M261.82,134.92Z" transform="translate(205.348 212.183)"/><path class="dq" d="M261.82,134.92Z" transform="translate(205.348 212.183)"/><path class="dr" d="M261.82,134.92Z" transform="translate(205.348 212.183)"/><path class="ds" d="M261.82,134.92Z" transform="translate(205.348 212.183)"/><path class="dt" d="M261.82,134.92Z" transform="translate(205.348 212.183)"/><path class="du" d="M261.82,134.92Z" transform="translate(205.348 212.183)"/><path class="dv" d="M261.82,134.92Z" transform="translate(205.348 212.183)"/><path class="dw" d="M261.82,134.92Z" transform="translate(205.348 212.183)"/><path class="dx" d="M261.82,134.92Z" transform="translate(205.348 212.183)"/><path class="dy" d="M261.82,134.92Z" transform="translate(205.348 212.183)"/></g><path class="dz" d="M671,7.8,165.936,252.691,0,156.885Z" transform="translate(0 -7.8)"/><path class="ea" d="M520.072,7.8,95.97,299.41l165.911,95.806Z" transform="translate(150.928 -7.8)"/><path class="eb" d="M145.461,299.41,569.564,7.8,64.5,252.691l40.468,153.845Z" transform="translate(101.436 -7.8)"/><path class="ec" d="M61.63,248.42,574.077,7.8,69.014,252.691Z" transform="translate(96.923 -7.8)"/><path class="ed" d="M95.97,299.41,520.072,7.8,102.582,303.244Z" transform="translate(150.928 -7.8)"/></g></g></svg>