<svg xmlns="http://www.w3.org/2000/svg" width="34.654" height="34.654" viewBox="0 0 34.654 34.654"><defs><style>.a{fill:#fff;}</style></defs><path class="a" d="M30.877,31.292h.009V18.581c0-6.217-1.339-11.007-8.607-11.007a7.546,7.546,0,0,0-6.8,3.735h-.1V8.154H8.489V31.29h7.176V19.834c0-3.016.572-5.933,4.307-5.933,3.681,0,3.735,3.442,3.735,6.127V31.292Z" transform="translate(3.768 3.362)"/><path class="a" d="M.4,7.977H7.581V31.113H.4Z" transform="translate(0.176 3.541)"/><path class="a" d="M4.161,0A4.181,4.181,0,1,0,8.323,4.161,4.163,4.163,0,0,0,4.161,0Z"/></svg>